<?xml version="1.0" encoding="utf-8"?>
<!-- Generator: Adobe Illustrator 23.0.5, SVG Export Plug-In . SVG Version: 6.00 Build 0)  -->
<svg version="1.1" id="Layer_1" xmlns:serif="http://www.serif.com/"
	 xmlns="http://www.w3.org/2000/svg" xmlns:xlink="http://www.w3.org/1999/xlink" x="0px" y="0px" viewBox="0 0 125.1 119.9"
	 style="enable-background:new 0 0 125.1 119.9;" xml:space="preserve">
<style type="text/css">
	.st0{fill:#1D1C21;}
	.st1{fill:#EBF0F2;}
	.st2{fill:#009EDB;}
	.st3{clip-path:url(#SVGID_2_);}
	.st4{fill-rule:evenodd;clip-rule:evenodd;fill:#E2680E;}
	
		.st5{fill-rule:evenodd;clip-rule:evenodd;fill:#EBEBEB;stroke:#000000;stroke-width:0.14;stroke-linecap:round;stroke-linejoin:round;stroke-miterlimit:1.5;}
	.st6{fill:#E2680E;}
	.st7{clip-path:url(#SVGID_4_);}
	.st8{fill-rule:evenodd;clip-rule:evenodd;fill:#009EDB;}
	.st9{fill:#FF0000;}
	.st10{clip-path:url(#SVGID_6_);}
	.st11{clip-path:url(#SVGID_8_);}
	.st12{clip-path:url(#SVGID_10_);}
	.st13{fill:#FFFFFF;}
	.st14{clip-path:url(#SVGID_12_);}
	.st15{clip-path:url(#SVGID_14_);}
	.st16{fill:#079DD9;}
	.st17{fill:none;}
	.st18{fill:#1D10C1;}
	.st19{fill:none;stroke:#FFFFFF;stroke-width:10;stroke-linecap:square;stroke-miterlimit:10;}
	.st20{fill:none;stroke:#FFFFFF;stroke-width:10;stroke-miterlimit:10;}
	.st21{fill:#1088AD;}
	.st22{fill:none;stroke:#009EDB;stroke-miterlimit:10;}
</style>
<g transform="matrix(1,0,0,1,75.2974,7.62144)">
	<path class="st2" d="M-75.3,50.3V31.1l3-2.7l3,2.7v19.2l-3,2.7L-75.3,50.3z M-75.3,22.8V3.6l3-2.7l3,2.7v19.2l-3,2.8L-75.3,22.8z
		 M-70.8,54.5l3-2.7h20.9l3,2.7l-3,2.7h-20.9L-70.8,54.5z M-70.8-0.5l3-2.8h20.9l3,2.8l-3,2.7h-20.9L-70.8-0.5z"/>
</g>
<g>
	<polygon class="st2" points="48,11.2 68.9,11.2 68.9,11.2 48,11.2 	"/>
	<polygon class="st2" points="45.1,8.5 48.3,3.8 45.1,8.5 47.2,10.5 	"/>
	<path class="st2" d="M76.4,31.8V12.6l-3-2.7l-3,2.7v19.3H46.5V12.6l-3-2.7l-3,2.7v19.3v8.2c0,0-0.5,19,0,23.4
		c0.2,1.3,2.3,2.6,3.2,2.6c1,0,2.6-1.4,2.7-2.6c0.3-3.2,0.2-14.6,0.1-20.2l0,0l24.1,0.3c-0.2,5.7-0.6,16.7-0.3,19.9
		c0.1,1.3,2,2.7,3,2.7s2.8-1.5,3-2.7c0.5-4.4,0-23.4,0-23.4V31.8z M48.3,39.7c-1.7,0-3.1-1.1-3.1-2.5c0-1.4,1.4-2.5,3.1-2.5
		s3.1,1.1,3.1,2.5C51.4,38.5,50,39.7,48.3,39.7z M67.5,37.3c0-1.3,1.4-2.4,3.1-2.4s3.1,1.1,3.1,2.4s-1.4,2.4-3.1,2.4
		S67.5,38.6,67.5,37.3z"/>
	<polygon class="st2" points="57.9,0 54.6,0.1 57.9,0 	"/>
	<polygon class="st6" points="47.2,10.5 48,11.2 68.9,11.2 71.9,8.5 65.4,0.1 57.9,0 54.6,0.1 50.8,0.1 48.3,3.8 45.1,8.5 	"/>
</g>
<g transform="matrix(1,0,0,1,60.6563,7.32847)">
	<path class="st6" d="M26.9,57.3V32.5l3-2.7l3,2.7v19.2L26.9,57.3z M26.9,24.3V-0.5l6,5.5v19.3l-3,2.7L26.9,24.3z M28.4,58.7l6-5.5
		h20.9l3,2.7l-3,2.7H28.4z M28.4-1.8h26.9l3,2.7l-3,2.7H34.3L28.4-1.8z M31.3,28.4l3-2.7h20.9l3,2.7l-3,2.8H34.3L31.3,28.4z
		 M56.7,51.8V32.5l3-2.7l3,2.7v19.2l-3,2.7L56.7,51.8z M56.7,24.3V5l3-2.7l3,2.7v19.3l-3,2.7L56.7,24.3z"/>
	<g>
		<defs>
			<path id="SVGID_11_" d="M26.9,57.3V32.5l3-2.7l3,2.7v19.2L26.9,57.3z M26.9,24.3V-0.5l6,5.5v19.3l-3,2.7L26.9,24.3z M28.4,58.7
				l6-5.5h20.9l3,2.7l-3,2.7H28.4z M28.4-1.8h26.9l3,2.7l-3,2.7H34.3L28.4-1.8z M31.3,28.4l3-2.7h20.9l3,2.7l-3,2.8H34.3L31.3,28.4z
				 M56.7,51.8V32.5l3-2.7l3,2.7v19.2l-3,2.7L56.7,51.8z M56.7,24.3V5l3-2.7l3,2.7v19.3l-3,2.7L56.7,24.3z"/>
		</defs>
		<clipPath id="SVGID_2_">
			<use xlink:href="#SVGID_11_"  style="overflow:visible;"/>
		</clipPath>
		<g class="st3">
			<g transform="matrix(0.88549,0,0,0.773131,999.489,56.8297)">
				<path class="st8" d="M-1064.7-42V-67l3.4-3.5l3.4,3.5V-42l-3.4,3.5L-1064.7-42z"/>
			</g>
			<g transform="matrix(0.88549,0,0,0.773131,999.489,56.8297)">
				<path class="st8" d="M-1096.7-75.8h30.3l3.4,3.5l-3.4,3.5h-23.6L-1096.7-75.8z"/>
			</g>
		</g>
	</g>
</g>
<g transform="matrix(1,0,0,1,9.05128,513.634)">
	<path class="st2" d="M91.3-399.2v-15.4l2.4-2.2l2.4,2.2v15.4l-2.4,2.2L91.3-399.2z M91.3-421.3v-15.4l2.4-2.2l2.4,2.2v15.4
		l-2.4,2.2L91.3-421.3z M94.8-395.9l2.4-2.2h16.6l2.4,2.2l-2.4,2.2H97.2L94.8-395.9z M94.8-418l2.4-2.2h16.6l2.4,2.2l-2.4,2.2H97.2
		L94.8-418z M94.8-440l2.4-2.2h16.6l2.4,2.2l-2.4,2.2H97.2L94.8-440z"/>
</g>
<g transform="matrix(1,0,0,1,-1252.44,513.634)">
	<path class="st2" d="M1252.5-399.2v-15.4l2.4-2.2l2.4,2.2v15.4l-2.4,2.2L1252.5-399.2z M1252.5-421.3v-15.4l2.4-2.2l2.4,2.2v15.4
		l-2.4,2.2L1252.5-421.3z M1256.1-395.9l2.4-2.2h16.6l2.4,2.2l-2.4,2.2h-16.6L1256.1-395.9z M1256.1-440l2.4-2.2h16.6l2.4,2.2
		l-2.4,2.2h-16.6L1256.1-440z"/>
</g>
<g transform="matrix(1,0,0,1,-1275.74,513.634)">
	<path class="st9" d="M1306.7-399.2v-15.4l2.4-2.2l2.4,2.2v15.4l-2.4,2.2L1306.7-399.2z M1306.7-421.3v-15.4l2.4-2.2l2.4,2.2v15.4
		l-2.4,2.2L1306.7-421.3z M1310.3-395.9l2.4-2.2h16.6l2.4,2.2l-2.4,2.2h-16.6L1310.3-395.9z M1310.3-440l2.4-2.2h16.6l2.4,2.2
		l-2.4,2.2h-16.6L1310.3-440z M1330.4-399.2v-15.4l2.4-2.2l2.4,2.2v15.4l-2.4,2.2L1330.4-399.2z M1330.4-421.3v-15.4l2.4-2.2
		l2.4,2.2v15.4l-2.4,2.2L1330.4-421.3z"/>
	<g>
		<defs>
			<path id="SVGID_13_" d="M1306.7-399.2v-15.4l2.4-2.2l2.4,2.2v15.4l-2.4,2.2L1306.7-399.2z M1306.7-421.3v-15.4l2.4-2.2l2.4,2.2
				v15.4l-2.4,2.2L1306.7-421.3z M1310.3-395.9l2.4-2.2h16.6l2.4,2.2l-2.4,2.2h-16.6L1310.3-395.9z M1310.3-440l2.4-2.2h16.6
				l2.4,2.2l-2.4,2.2h-16.6L1310.3-440z M1330.4-399.2v-15.4l2.4-2.2l2.4,2.2v15.4l-2.4,2.2L1330.4-399.2z M1330.4-421.3v-15.4
				l2.4-2.2l2.4,2.2v15.4l-2.4,2.2L1330.4-421.3z"/>
		</defs>
		<clipPath id="SVGID_4_">
			<use xlink:href="#SVGID_13_"  style="overflow:visible;"/>
		</clipPath>
		<g class="st7">
			<g transform="matrix(0.88549,0,0,0.773131,2288.77,-447.584)">
				<path class="st8" d="M-1105,9.8l2.7-2.9h18.7l2.7,2.9l-2.7,2.8h-18.7L-1105,9.8z"/>
			</g>
			<g transform="matrix(0.88549,0,0,0.773131,2288.77,-447.584)">
				<path class="st8" d="M-1109,34v-20l2.7-2.8l2.7,2.8v20l-2.7,2.9L-1109,34z"/>
			</g>
			<g transform="matrix(0.88549,0,0,0.773131,2288.77,-447.584)">
				<path class="st8" d="M-1082.3,34v-20l2.7-2.8l2.7,2.8v20l-2.7,2.9L-1082.3,34z"/>
			</g>
			<g transform="matrix(0.88549,0,0,0.773131,2288.77,-447.584)">
				<path class="st8" d="M-1082.3,62.6v-20l2.7-2.8l2.7,2.8v20l-2.7,2.8L-1082.3,62.6z"/>
			</g>
			<g transform="matrix(0.88549,0,0,0.773131,2288.77,-447.584)">
				<path class="st8" d="M-1105,66.9l2.7-2.8h18.7l2.7,2.8l-2.7,2.8h-18.7L-1105,66.9z"/>
			</g>
			<g transform="matrix(0.88549,0,0,0.773131,2288.77,-447.584)">
				<path class="st8" d="M-1109,62.6v-20l2.7-2.8l2.7,2.8v20l-2.7,2.8L-1109,62.6z"/>
			</g>
		</g>
	</g>
</g>
<g transform="matrix(1,0,0,1,-1297.48,513.634)">
	<path class="st2" d="M1363.1-394.8v-19.9l2.4-2.2l2.4,2.2v15.4L1363.1-394.8z M1363.1-421.2v-19.9l4.7,4.4v15.5l-2.4,2.2
		L1363.1-421.2z M1364.3-393.7l4.7-4.4h16.6l2.4,2.2l-2.4,2.2H1364.3z M1364.3-442.2h21.3l2.4,2.2l-2.4,2.2H1369L1364.3-442.2z
		 M1386.8-399.2v-15.4l2.4-2.2l2.4,2.2v15.4l-2.4,2.2L1386.8-399.2z M1386.8-421.2v-15.5l2.4-2.2l2.4,2.2v15.5l-2.4,2.2
		L1386.8-421.2z"/>
</g>
</svg>
